<svg width="71" height="80" viewBox="0 0 71 80" fill="none" xmlns="http://www.w3.org/2000/svg">
<path d="M36.6675 79.805C36.218 79.935 35.7536 80 35.2942 80C34.8348 80 34.3704 79.935 33.921 79.805C3.01546 70.965 -1.53373 39.685 0.373833 24.375C0.688431 21.88 2.81571 20 5.3325 20C6.04659 19.945 10.3261 19.205 10.3261 10C10.3261 8.675 10.8504 7.4 11.7892 6.465C12.8679 5.385 19.065 0 35.2942 0C51.5235 0 57.7206 5.385 58.7992 6.465C59.738 7.4 60.2623 8.675 60.2623 10C60.2623 19.205 64.5418 19.945 65.4008 20.005C67.9175 20.005 69.9 21.88 70.2146 24.38C72.1222 39.685 67.568 70.965 36.6675 79.805ZM65.2559 25C65.2559 25 55.2687 25 55.2687 10C55.2687 10 50.2751 5 35.2942 5C20.3134 5 15.3197 10 15.3197 10C15.3197 25 5.3325 25 5.3325 25C5.3325 25 0.338875 65 35.2942 75C70.2496 65 65.2559 25 65.2559 25Z" fill="#FF8400"/>
</svg>
