<svg width="325" height="412" viewBox="0 0 325 412" fill="none" xmlns="http://www.w3.org/2000/svg">
<path d="M290.83 154.48L277.26 140.91L271.48 135.13L244.42 108.07L226.52 90.17L287.19 18.16C288.48 27.91 289.15 37.94 289.15 48.18C289.15 76.92 283.85 104.01 274.52 127.79L280.39 133.66C291.04 107.75 296.73 78.54 296.73 48.17C296.73 35.31 295.71 22.67 293.73 10.38C293.5 8.98001 293.27 7.58001 293.01 6.18001C292.93 5.76001 292.86 5.33001 292.79 4.91001C292.54 3.54001 292.27 2.18001 291.99 0.820007L285.67 8.33001L221.21 84.84L216.31 90.66L218.62 92.97L219.32 93.67L221.63 95.98L268.09 142.44C262.41 153.97 255.73 164.52 248.21 173.86C246.61 175.85 244.97 177.79 243.29 179.67C240.84 182.41 238.31 185.03 235.71 187.52C224.93 197.84 212.9 205.93 200 211.3C197.67 212.27 195.31 213.15 192.92 213.94L191.4 222.39L162.39 383.58L133.31 222.05L131.78 213.55C129.39 212.73 127.02 211.81 124.68 210.8C112.22 205.43 100.6 197.52 90.14 187.51C87.48 184.96 84.9 182.28 82.39 179.47C80.72 177.59 79.08 175.65 77.48 173.66C69.87 164.19 63.13 153.47 57.42 141.75L103.35 95.82L105.66 93.51L106.36 92.81L108.67 90.5L103.77 84.68L40.03 9.06001L33.7 1.54001C33.42 2.90001 33.16 4.27001 32.91 5.65001C32.83 6.07001 32.76 6.49001 32.69 6.92001C32.44 8.32001 32.21 9.72001 31.99 11.13C30.09 23.18 29.11 35.58 29.11 48.17C29.11 78.29 34.7 107.26 45.18 133.02L51.07 127.13C41.9 103.5 36.7 76.65 36.7 48.17C36.7 38.2 37.34 28.43 38.56 18.92L98.45 90.01L78 110.43L54.02 134.41L48.23 140.2L32.14 156.3L1.03003 187.4L32.38 218.75L37.74 224.11L84.93 271.31V322.61V333.34L92.51 340.92L160.26 408.67L162.71 411.12L164.28 409.55L233.3 340.53L240.88 332.95V322.22V270.25L287.35 223.78L292.71 218.42L323.72 187.41L290.83 154.48ZM92.52 330.2V278.9V268.17L84.94 260.59L43.1 218.75L37.74 213.39L11.76 187.4L51.71 147.45C56.43 156.8 61.85 165.62 67.93 173.78C69.28 175.59 70.66 177.35 72.05 179.07C73.66 181.06 75.31 182.99 76.98 184.86C79.56 187.75 82.22 190.5 84.94 193.11C97.51 205.15 111.46 214.1 126.26 219.67L157.92 395.57L92.52 330.2ZM287.37 213.06L282.01 218.42L240.9 259.53L233.32 267.11V277.84V329.81L166.65 396.48L198.39 220.12C213.63 214.58 228 205.47 240.9 193.1C243.55 190.56 246.14 187.88 248.66 185.07C250.34 183.2 251.98 181.27 253.6 179.28C255.05 177.49 256.48 175.67 257.88 173.79C263.82 165.82 269.11 157.23 273.75 148.14L313.02 187.41L287.37 213.06Z" fill="#E5E5E5" stroke="#E5E5E5" stroke-width="0.75" stroke-miterlimit="10"/>
</svg>
