<svg width="80" height="80" viewBox="0 0 80 80" fill="none" xmlns="http://www.w3.org/2000/svg">
<path d="M47.1347 0.133301C29.3227 0.133301 14.8846 14.5714 14.8846 32.3834C14.8846 40.049 17.5738 47.0844 22.0392 52.6215L0.724379 73.9363C-0.615239 75.2759 -0.615239 77.4541 0.724379 78.7937C2.064 80.1333 4.24212 80.1333 5.58173 78.7937L26.8965 57.4789C32.4336 61.9443 39.4691 64.6334 47.1347 64.6334C64.9466 64.6334 79.3848 50.1953 79.3848 32.3834C79.3848 14.5714 64.9466 0.133301 47.1347 0.133301ZM47.1347 59.6719C32.0863 59.6719 19.8462 47.4317 19.8462 32.3834C19.8462 17.335 32.0863 5.09485 47.1347 5.09485C62.1831 5.09485 74.4232 17.335 74.4232 32.3834C74.4232 47.4317 62.1831 59.6719 47.1347 59.6719Z" fill="#FF8400"/>
</svg>
